# xmcd CD database file
#
# Track frame offsets:
#	150
#	17835
#	31425
#	49155
#	63530
#	79185
#	93315
#	106129
#	137375
#	153360
#	165405
#	188207
#	205560
#	223516
#	238997
#	266435
#	284361
#	302542
#	316860
#
# Disc length: 4438 seconds
#
# Revision: 0
# Processed by: cddbd v1.5.2PL0 Copyright (c) Steve Scherf et al.
# Submitted via: CDex 1.70beta2
#
DISCID=fb115413
DTITLE=Hans Teeuwen - Hans Teeuwen Zingt
DYEAR=2007
DGENRE=Jazz
TTITLE0=Hans Teeuwen - Come Fly With Me
TTITLE1=Hans Teeuwen - Luck Be a Lady
TTITLE2=Hans Teeuwen - Pennies From Heaven
TTITLE3=Hans Teeuwen - Witchcraft
TTITLE4=Hans Teeuwen - It Had To Be You
TTITLE5=Hans Teeuwen - The Best Is Yet To Come
TTITLE6=Hans Teeuwen - I Concentrate On You
TTITLE7=Hans Teeuwen - Wee (instr.)
TTITLE8=Hans Teeuwen - The Lady Is A Tramp
TTITLE9=Hans Teeuwen - Please Be Kind
TTITLE10=Hans Teeuwen - Willow Weep For Me
TTITLE11=Hans Teeuwen - You Make Me Feel So Young
TTITLE12=Hans Teeuwen - Angel Eyes
TTITLE13=Hans Teeuwen - I Got A Woman
TTITLE14=Hans Teeuwen - Route 66
TTITLE15=Hans Teeuwen - Give It To Me Straight
TTITLE16=Hans Teeuwen - Good At It
TTITLE17=Hans Teeuwen - Hallelujah
TTITLE18=Hans Teeuwen - Fly Me To The Moon
EXTD=YEAR: 2007
EXTT0=
EXTT1=
EXTT2=
EXTT3=
EXTT4=
EXTT5=
EXTT6=
EXTT7=
EXTT8=
EXTT9=
EXTT10=
EXTT11=
EXTT12=
EXTT13=
EXTT14=
EXTT15=
EXTT16=
EXTT17=
EXTT18=
PLAYORDER=
